# File created by Blade
# Date/Time:  Thu Sep 25 15:41:58 2014
# Frame Rate: 120.000 fps
#------------------------------------------------------
:FULLY-SPECIFIED
:DEGREES
729
root 8.613870 32.982125 -2.003714 195.001053 -76.982985 -120.843034
Spine 9.335639 11.244970 -9.954810
Head -50.034145 1.417251 9.405561
LeftShoulder 8.107984 6.522703 34.676076
LeftArm 63.913759 -14.034356 -38.830424
LeftForeArm 6.583524 0.000000 32.600599
LeftHand -29.649323 -0.000000 21.405161
LeftHandThumb1 -26.253704 0.000000 33.147579
RightShoulder 1.970629 16.434593 -27.848890
RightArm 65.321562 -14.875809 41.725369
RightForeArm -19.393736 -0.000000 40.069402
RightHand -6.178134 -0.000000 -5.781463
RightHandThumb1 -24.326973 -0.000000 -32.862282
LeftUpLeg -82.728402 1.424660 -0.153518
LeftLeg 15.789849 -0.000000 -0.000000
LeftFoot -17.319130 20.836255 -19.519188
LeftToeBase 1.370831 -0.000000 -0.000000
RightUpLeg -35.490243 0.462408 15.234986
RightLeg 1.918540 -0.000000 -0.000000
RightFoot 1.846474 7.040643 4.896860
RightToeBase -10.784037 -0.000000 0.000000
730
root 8.845295 32.979911 -2.005534 193.429292 -77.030338 -120.433207
Spine 9.243968 11.268343 -9.596844
Head -49.340158 1.261979 9.431027
LeftShoulder 8.300817 6.415870 34.448781
LeftArm 63.578730 -12.241043 -39.216947
LeftForeArm 6.584336 -0.000000 32.721137
LeftHand -29.626022 -0.000000 22.012954
LeftHandThumb1 -26.253704 0.000000 33.147579
RightShoulder 1.781965 15.760399 -27.628745
RightArm 65.185250 -16.356990 41.587615
RightForeArm -19.540847 -0.000000 40.841824
RightHand -5.965184 -0.000000 -5.307644
RightHandThumb1 -24.326973 -0.000000 -32.862282
LeftUpLeg -81.770898 1.573984 -0.440178
LeftLeg 15.294653 -0.000000 -0.000000
LeftFoot -16.677256 20.586055 -19.238971
LeftToeBase 1.404965 -0.000000 -0.000000
RightUpLeg -35.082731 0.694553 15.366892
RightLeg 2.013909 -0.000000 -0.000000
RightFoot 1.281460 7.274286 4.743135
RightToeBase -10.935542 -0.000000 0.000000
731
root 9.067654 32.973957 -2.004098 192.189514 -77.091624 -120.385294
Spine 9.193251 11.191993 -9.389484
Head -48.586252 1.125302 9.589148
LeftShoulder 8.457105 6.439170 34.246300
LeftArm 63.345862 -10.597372 -39.616291
LeftForeArm 6.305016 -0.000000 32.721521
LeftHand -29.581490 -0.000000 23.067785
LeftHandThumb1 -26.253704 0.000000 33.147579
RightShoulder 1.640965 14.849527 -27.104042
RightArm 65.360370 -17.624405 40.902500
RightForeArm -19.249916 -0.000000 41.637390
RightHand -5.779055 -0.000000 -4.862259
RightHandThumb1 -24.326973 -0.000000 -32.862282
LeftUpLeg -80.759923 1.694251 -0.824230
LeftLeg 14.782666 -0.000000 -0.000000
LeftFoot -16.114470 20.365418 -18.979637
LeftToeBase 1.701206 -0.000000 -0.000000
RightUpLeg -34.654372 0.706913 15.532739
RightLeg 2.113533 -0.000000 -0.000000
RightFoot 0.675669 7.584014 4.615540
RightToeBase -10.694999 -0.000000 0.000000
732
root 9.285597 32.964323 -2.000118 191.115189 -77.178881 -120.497087
Spine 9.182372 11.066313 -9.219094
Head -47.974399 1.068680 9.754787
LeftShoulder 8.530890 6.471376 33.955649
LeftArm 63.218346 -8.974085 -39.851497
LeftForeArm 6.346710 -0.000000 32.559830
LeftHand -29.635582 -0.000000 23.032413
LeftHandThumb1 -26.253704 0.000000 33.147579
RightShoulder 1.492642 14.347991 -26.861969
RightArm 65.017314 -19.062523 41.151284
RightForeArm -19.513310 -0.000000 42.292498
RightHand -5.539838 -0.000000 -4.598388
RightHandThumb1 -24.326973 -0.000000 -32.862282
LeftUpLeg -79.761815 1.819340 -1.374072
LeftLeg 14.295872 -0.000000 -0.000000
LeftFoot -15.509637 20.003810 -18.607813
LeftToeBase 1.976132 -0.000000 -0.000000
RightUpLeg -34.242197 0.552154 15.730439
RightLeg 2.250915 -0.000000 -0.000000
RightFoot 0.250511 7.990820 4.846041
RightToeBase -11.001636 -0.000000 0.000000
733
root 9.501281 32.951995 -1.995414 190.287795 -77.250871 -120.806730
Spine 9.081507 10.873843 -9.166167
Head -47.306846 1.101863 9.989837
LeftShoulder 8.585060 6.458060 33.655732
LeftArm 62.998492 -7.278406 -39.955724
LeftForeArm 6.327270 0.000000 32.339539
LeftHand -29.720374 -0.000000 23.051321
LeftHandThumb1 -26.253704 0.000000 33.147579
RightShoulder 1.478220 14.604406 -26.642911
RightArm 63.974448 -21.002654 41.847839
RightForeArm -19.974690 -0.000000 42.906038
RightHand -5.311600 -0.000000 -4.277389
RightHandThumb1 -24.326973 -0.000000 -32.862282
LeftUpLeg -78.813197 1.948266 -1.902531
LeftLeg 13.830485 -0.000000 -0.000000
LeftFoot -14.867772 19.672676 -18.197374
LeftToeBase 2.090123 -0.000000 -0.000000
RightUpLeg -33.901088 0.311262 15.947250
RightLeg 2.432311 -0.000000 -0.000000
RightFoot -0.260336 8.386405 4.864653
RightToeBase -10.862162 -0.000000 0.000000
734
root 9.711611 32.937445 -1.992463 189.542449 -77.372981 -121.118140
Spine 8.969666 10.684277 -9.136632
Head -46.871505 1.092833 10.236815
LeftShoulder 8.520554 6.541775 33.300332
LeftArm 63.008663 -5.674323 -40.009744
LeftForeArm 6.167832 -0.000000 32.112034
LeftHand -29.633277 -0.000000 22.957417
LeftHandThumb1 -26.253704 0.000000 33.147579
RightShoulder 1.160798 14.147654 -26.279951
RightArm 63.780547 -22.494390 41.945969
RightForeArm -19.909749 0.000000 43.387365
RightHand -4.921661 -0.000000 -3.711879
RightHandThumb1 -24.326973 -0.000000 -32.862282
LeftUpLeg -77.937102 2.068523 -2.508949
LeftLeg 13.348702 -0.000000 -0.000000
LeftFoot -14.205893 19.245976 -17.781869
LeftToeBase 2.276590 -0.000000 -0.000000
RightUpLeg -33.631168 -0.036509 16.216624
RightLeg 2.578649 -0.000000 -0.000000
RightFoot -0.643730 8.765080 5.181534
RightToeBase -10.627721 -0.000000 0.000000
